0
SECTION
2
HEADER
9
$INSUNITS
70
4
9
$ACADVER
1
AC1014
9
$HANDSEED
5
FFFF
0
ENDSEC
0
SECTION
2
TABLES
0
TABLE
2
VPORT
5
8
100
AcDbSymbolTable
0
ENDTAB
0
TABLE
2
LTYPE
5
5
100
AcDbSymbolTable
0
LTYPE
5
14
100
AcDbSymbolTableRecord
100
AcDbLinetypeTableRecord
2
BYBLOCK
70
0
0
LTYPE
5
15
100
AcDbSymbolTableRecord
100
AcDbLinetypeTableRecord
2
BYLAYER
70
0
0
LTYPE
5
16
100
AcDbSymbolTableRecord
100
AcDbLinetypeTableRecord
2
DASHED
70
0
3
Dashed __ __ __ __ __ __ __ __ __ __ __ __ __ _
72
65
73
2
40
0.75
49
0.5
74
0
49
-0.25
74
0
0
ENDTAB
0
TABLE
2
LAYER
5
2
100
AcDbSymbolTable
70
2
0
LAYER
5
50
100
AcDbSymbolTableRecord
100
AcDbLayerTableRecord
2
0
70
0
62
7
6
CONTINUOUS
0
ENDTAB
0
TABLE
2
STYLE
5
3
100
AcDbSymbolTable
70
1
0
STYLE
5
11
100
AcDbSymbolTableRecord
100
AcDbTextStyleTableRecord
2
STANDARD
70
0
0
ENDTAB
0
TABLE
2
VIEW
5
6
100
AcDbSymbolTable
70
0
0
ENDTAB
0
TABLE
2
UCS
5
7
100
AcDbSymbolTable
70
0
0
ENDTAB
0
TABLE
2
APPID
5
9
100
AcDbSymbolTable
70
2
0
APPID
5
12
100
AcDbSymbolTableRecord
100
AcDbRegAppTableRecord
2
ACAD
70
0
0
ENDTAB
0
TABLE
2
DIMSTYLE
5
A
100
AcDbSymbolTable
70
1
0
ENDTAB
0
TABLE
2
BLOCK_RECORD
5
1
100
AcDbSymbolTable
70
1
0
BLOCK_RECORD
5
1F
100
AcDbSymbolTableRecord
100
AcDbBlockTableRecord
2
*MODEL_SPACE
0
BLOCK_RECORD
5
1B
100
AcDbSymbolTableRecord
100
AcDbBlockTableRecord
2
*PAPER_SPACE
0
ENDTAB
0
ENDSEC
0
SECTION
2
BLOCKS
0
BLOCK
5
20
100
AcDbEntity
100
AcDbBlockBegin
2
*MODEL_SPACE
0
ENDBLK
5
21
100
AcDbEntity
100
AcDbBlockEnd
0
BLOCK
5
1C
100
AcDbEntity
100
AcDbBlockBegin
2
*PAPER_SPACE
0
ENDBLK
5
1D
100
AcDbEntity
100
AcDbBlockEnd
0
ENDSEC
0
SECTION
2
ENTITIES
0
LWPOLYLINE
5
100
100
AcDbEntity
8
0
100
AcDbPolyline
90
8
70
1
43
0.0
10
466.49999999999966
20
51.750000000000895
42
0.41421356237309664
10
459.99999999999972
20
45.250000000000874
10
459.99999999999994
20
-45.249999999999275
42
0.41421356237309348
10
466.49999999999989
20
-51.749999999999261
10
525.00000000000011
20
-51.749999999999048
42
0.41421356237309664
10
531.5
20
-45.249999999999133
10
531.49999999999977
20
45.250000000000981
42
0.41421356237309348
10
524.99999999999977
20
51.750000000000931
0
LWPOLYLINE
5
101
100
AcDbEntity
8
0
100
AcDbPolyline
90
26
70
1
43
0.0
10
473.00000000000438
20
28.00000000000523
10
472.5000000000054
20
28.000000000004945
42
-0.41421356237329271
10
471.50000000000432
20
29.000000000004782
10
471.50000000000381
20
31.381966011272478
42
-0.21342176528278495
10
471.83333333333519
20
32.127322003771006
42
0.68850025807003268
10
471.49999999999989
20
33.000000000016563
10
468.49999999999909
20
33.000000000003489
42
0.68850025806796855
10
468.16666666666748
20
32.12732200374888
42
-0.21342176528382409
10
468.50000000000216
20
31.381966011247862
10
468.50000000000244
20
29.000000000000341
42
-0.41421356237285567
10
467.50000000000335
20
28.00000000000022
10
467.00000000000438
20
27.999999999999723
42
-0.41421356237334478
10
466.00000000000341
20
28.999999999999666
10
466.00000000000296
20
36.00000000002467
42
-0.41421356237313667
10
467.00000000000301
20
37.000000000024755
10
467.99999999999926
20
37.000000000024755
42
0.41421356237313667
10
468.4999999999992
20
37.500000000024798
10
468.49999999999915
20
39.188262308511455
42
0.23096069700628208
10
468.30769230769147
20
39.582375799509776
42
-2.9058687368802807
10
471.69230779225427
20
39.58237587754013
42
0.2309606664403839
10
471.50000011811875
20
39.188262435710683
10
471.5000000000025
20
37.50000000002462
42
0.41421356237309503
10
472.00000000000244
20
37.000000000024649
10
473.00000000000301
20
37.000000000024613
42
-0.4142135623730534
10
474.00000000000296
20
36.00000000002467
10
474.00000000000347
20
29.000000000005279
42
-0.41421356237286611
0
LWPOLYLINE
5
102
100
AcDbEntity
8
0
100
AcDbPolyline
90
26
70
1
43
0.0
10
473.99999999999568
20
-28.999999999998423
42
0.41421356237333434
10
472.99999999999471
20
-27.999999999998444
10
472.49999999999574
20
-27.99999999999887
42
0.41421356237283491
10
471.49999999999665
20
-28.999999999998991
10
471.49999999999693
20
-31.381966011246618
42
0.21342176528381795
10
471.83333333333161
20
-32.127322003747615
42
-0.68850025806792947
10
471.49999999999989
20
-33.00000000000221
10
468.49999999999909
20
-33.000000000015255
42
-0.68850025807001514
10
468.16666666666379
20
-32.127322003769763
42
0.21342176528281259
10
468.49999999999523
20
-31.381966011271238
10
468.49999999999466
20
-29.00000000000329
42
0.41421356237331353
10
467.49999999999375
20
-28.000000000003524
10
466.99999999999466
20
-28.000000000003951
42
0.41421356237283491
10
465.99999999999557
20
-29.000000000004036
10
465.99999999999613
20
-36.000000000023427
42
0.41421356237306384
10
466.99999999999602
20
-37.000000000023334
10
467.9999999999967
20
-37.00000000002337
42
-0.41421356237309503
10
468.4999999999967
20
-37.500000000023341
10
468.49999988188029
20
-39.188262435709227
42
-0.23096066644037239
10
468.30769220774482
20
-39.582375877538638
42
2.9058687368802807
10
471.69230769230757
20
-39.582375799507815
42
-0.23096069700636418
10
471.49999999999989
20
-39.188262308509394
10
471.49999999999977
20
-37.500000000023519
42
-0.41421356237313667
10
471.99999999999977
20
-37.000000000023476
10
472.99999999999602
20
-37.000000000023476
42
0.41421356237314705
10
473.99999999999608
20
-36.000000000023427
0
LWPOLYLINE
5
103
100
AcDbEntity
8
0
100
AcDbPolyline
90
40
70
1
43
0.0
10
481.19999999999976
20
-34.588094023941487
10
481.19999999999993
20
-15.911905976056175
42
-0.10588754255383426
10
481.4631578947367
20
-14.683209393958334
42
-0.068135655305554627
10
485.16934943372263
20
-8.745900566276319
42
0.3570343066491547
10
485.04346960912392
20
-7.4855006308015248
10
483.90398448916073
20
-6.3460155108382565
42
-0.99999999999999989
10
486.09601551083898
20
-4.1539844891599387
10
487.23550063080222
20
-5.2934696091231359
42
0.35703430664913532
10
488.49590056627761
20
-5.4193494337225694
42
-0.068135655305558318
10
494.43320939395926
20
-1.7131578947359629
42
-0.10588754255383651
10
495.66190597605714
20
-1.4499999999991076
10
514.33809402394377
20
-1.4499999999994304
42
-0.10588754255383079
10
515.56679060604085
20
-1.7131578947379418
42
-0.068135655305562995
10
521.50409943372267
20
-5.419349433721834
42
0.35703430664917418
10
522.76449936919767
20
-5.2934696091231359
10
523.90398450549264
20
-4.1539844728280704
42
-0.9999999925494194
10
526.09601551083915
20
-6.3460155108382921
10
524.95653039087586
20
-7.4855006308014893
42
0.35703430664916563
10
524.83065056627606
20
-8.7459005662774221
42
-0.068135655305576498
10
528.53684210526296
20
-14.68320939395811
42
-0.1058875425538373
10
528.79999999999984
20
-15.911905976055962
10
528.79999999999984
20
-34.588094023942162
42
-0.10588754255383449
10
528.53684210526319
20
-35.816790606040058
42
-0.068135655305587753
10
524.8306505662772
20
-41.754099433721912
42
0.35703430664916869
10
524.95653039087597
20
-43.014499369196812
10
526.09601551083961
20
-44.15398448916001
42
-0.99999999999999989
10
523.90398448916073
20
-46.346015510838328
10
522.76449936919767
20
-45.20653039087513
42
0.35703430664915603
10
521.50409943372313
20
-45.080650566277001
42
-0.068135655305584408
10
515.56679060604097
20
-48.786842105262167
42
-0.10588754255382932
10
514.3380940239432
20
-49.049999999999017
10
495.6619059760568
20
-49.049999999999123
42
-0.10588754255382943
10
494.43320939395824
20
-48.786842105264022
42
-0.068135655305569684
10
488.4959005662771
20
-45.080650566276574
42
0.35703430664920749
10
487.23550063080211
20
-45.206530390875166
10
486.09601551083898
20
-46.346015510838292
42
-0.99999999999999989
10
483.90398448916073
20
-44.153984489159974
10
485.04346960912386
20
-43.014499369196777
42
0.3570343066491603
10
485.16934943372155
20
-41.754099433722793
42
-0.068135655305570586
10
481.46315789473658
20
-35.816790606039234
42
-0.10588754255382662
0
LWPOLYLINE
5
104
100
AcDbEntity
8
0
100
AcDbPolyline
90
40
70
1
43
0.0
10
481.19999999999976
20
15.911905976057774
10
481.19999999999999
20
34.588094023943938
42
-0.10588754255382091
10
481.46315789473675
20
35.816790606041614
42
-0.068135655305572473
10
485.16934943372257
20
41.754099433723653
42
0.35703430664917118
10
485.04346960912386
20
43.014499369198624
10
483.90398447282882
20
44.153984505493689
42
-0.9999999925494194
10
486.09601551083898
20
46.346015510840104
10
487.23550063080222
20
45.206530390876907
42
0.35703430664917668
10
488.4959005662771
20
45.080650566278244
42
-0.068135655305568796
10
494.43320939395875
20
48.786842105264043
42
-0.10588754255384381
10
495.66190597605669
20
49.0500000000009
10
514.33809402394377
20
49.050000000000544
42
-0.10588754255383796
10
515.56679060604165
20
48.786842105263602
42
-0.068135655305563106
10
521.50409943372267
20
45.080650566278031
42
0.35703430664914332
10
522.76449936919744
20
45.206530390876729
10
523.9039844728286
20
46.346015494508208
42
-0.99999999999999989
10
526.09601552717106
20
44.153984505493682
10
524.95653039087586
20
43.014499369198589
42
0.3570343066491739
10
524.8306505662772
20
41.754099433723624
42
-0.068135655305571585
10
528.53684210526296
20
35.816790606041671
42
-0.10588754255382629
10
528.79999999999984
20
34.588094023943938
10
528.79999999999984
20
15.911905976057918
42
-0.1058875425538346
10
528.53684210526308
20
14.683209393960075
42
-0.068135655305572473
10
524.83065056627697
20
8.7459005662780598
42
0.3570343066490933
10
524.95653039087574
20
7.4855006308033722
10
526.09601551083892
20
6.3460155108399974
42
-0.99999999999999989
10
523.90398448916073
20
4.1539844891616795
10
522.76449936919755
20
5.2934696091249123
42
0.35703430664914187
10
521.50409943372279
20
5.4193494337236086
42
-0.068135655305569351
10
515.56679060604085
20
1.7131578947377841
42
-0.10588754255382517
10
514.33809402394309
20
1.450000000000955
10
495.6619059760568
20
1.4500000000008706
42
-0.10588754255382517
10
494.43320939395909
20
1.7131578947377712
42
-0.068135655305569795
10
488.49590056627721
20
5.4193494337235393
42
0.35703430664920605
10
487.23550063080211
20
5.2934696091249123
10
486.09601552717089
20
4.1539845054935833
42
-1.0000000074505806
10
483.90398448916073
20
6.3460155108399974
10
485.04346960912392
20
7.4855006308031591
42
0.35703430664920471
10
485.16934943372257
20
8.7459005662780918
42
-0.068135655305569795
10
481.46315789473658
20
14.683209393959915
42
-0.10588754255383505
0
ENDSEC
0
SECTION
2
OBJECTS
0
DICTIONARY
5
C
100
AcDbDictionary
3
ACAD_GROUP
350
D
3
ACAD_MLINESTYLE
350
17
0
DICTIONARY
5
D
100
AcDbDictionary
0
DICTIONARY
5
1A
330
C
100
AcDbDictionary
0
DICTIONARY
5
17
100
AcDbDictionary
0
ENDSEC
0
EOF
