0
SECTION
2
HEADER
9
$INSUNITS
70
4
9
$ACADVER
1
AC1014
9
$HANDSEED
5
FFFF
0
ENDSEC
0
SECTION
2
TABLES
0
TABLE
2
VPORT
5
8
100
AcDbSymbolTable
0
ENDTAB
0
TABLE
2
LTYPE
5
5
100
AcDbSymbolTable
0
LTYPE
5
14
100
AcDbSymbolTableRecord
100
AcDbLinetypeTableRecord
2
BYBLOCK
70
0
0
LTYPE
5
15
100
AcDbSymbolTableRecord
100
AcDbLinetypeTableRecord
2
BYLAYER
70
0
0
LTYPE
5
16
100
AcDbSymbolTableRecord
100
AcDbLinetypeTableRecord
2
DASHED
70
0
3
Dashed __ __ __ __ __ __ __ __ __ __ __ __ __ _
72
65
73
2
40
0.75
49
0.5
74
0
49
-0.25
74
0
0
ENDTAB
0
TABLE
2
LAYER
5
2
100
AcDbSymbolTable
70
2
0
LAYER
5
50
100
AcDbSymbolTableRecord
100
AcDbLayerTableRecord
2
0
70
0
62
7
6
CONTINUOUS
0
ENDTAB
0
TABLE
2
STYLE
5
3
100
AcDbSymbolTable
70
1
0
STYLE
5
11
100
AcDbSymbolTableRecord
100
AcDbTextStyleTableRecord
2
STANDARD
70
0
0
ENDTAB
0
TABLE
2
VIEW
5
6
100
AcDbSymbolTable
70
0
0
ENDTAB
0
TABLE
2
UCS
5
7
100
AcDbSymbolTable
70
0
0
ENDTAB
0
TABLE
2
APPID
5
9
100
AcDbSymbolTable
70
2
0
APPID
5
12
100
AcDbSymbolTableRecord
100
AcDbRegAppTableRecord
2
ACAD
70
0
0
ENDTAB
0
TABLE
2
DIMSTYLE
5
A
100
AcDbSymbolTable
70
1
0
ENDTAB
0
TABLE
2
BLOCK_RECORD
5
1
100
AcDbSymbolTable
70
1
0
BLOCK_RECORD
5
1F
100
AcDbSymbolTableRecord
100
AcDbBlockTableRecord
2
*MODEL_SPACE
0
BLOCK_RECORD
5
1B
100
AcDbSymbolTableRecord
100
AcDbBlockTableRecord
2
*PAPER_SPACE
0
ENDTAB
0
ENDSEC
0
SECTION
2
BLOCKS
0
BLOCK
5
20
100
AcDbEntity
100
AcDbBlockBegin
2
*MODEL_SPACE
0
ENDBLK
5
21
100
AcDbEntity
100
AcDbBlockEnd
0
BLOCK
5
1C
100
AcDbEntity
100
AcDbBlockBegin
2
*PAPER_SPACE
0
ENDBLK
5
1D
100
AcDbEntity
100
AcDbBlockEnd
0
ENDSEC
0
SECTION
2
ENTITIES
0
LWPOLYLINE
5
100
100
AcDbEntity
8
0
100
AcDbPolyline
90
16
70
1
43
0.0
10
394.59619407771368
20
-71.903805922286779
42
0.19891236737965839
10
396.50000000000119
20
-67.307611844574211
10
396.5000000000008
20
67.307611844575604
42
0.19891236737965662
10
394.59619407771328
20
71.903805922288129
10
383.40380592228814
20
83.09619407771325
42
0.19891236737965803
10
378.80761184457555
20
85.000000000000682
10
361.19238815542565
20
85.000000000000682
42
0.19891236737965803
10
356.59619407771311
20
83.09619407771325
10
345.40380592228803
20
71.9038059222882
42
0.19891236737965942
10
343.50000000000068
20
67.307611844575604
10
343.50000000000102
20
-67.307611844574325
42
0.19891236737965662
10
345.40380592228843
20
-71.90380592228685
10
356.59619407771356
20
-83.096194077712013
42
0.19891236737965803
10
361.19238815542616
20
-84.999999999999432
10
378.80761184457594
20
-84.999999999999361
42
0.19891236737965801
10
383.40380592228854
20
-83.096194077712084
0
LWPOLYLINE
5
101
100
AcDbEntity
8
0
100
AcDbPolyline
90
26
70
1
43
0.0
10
371.50000000000233
20
-72.438262308510346
42
0.2309606970062526
10
371.69230769230984
20
-72.832375799508654
42
-2.90586839835245
10
368.30769189694848
20
-72.832376120185273
42
0.23096062868278733
10
368.49999951457528
20
-72.438262722473397
10
368.49999999999875
20
-65.500000000023391
42
0.41421356237309503
10
367.99999999999875
20
-65.000000000023419
10
366.99999999999812
20
-65.000000000023377
42
-0.4142135623730534
10
365.99999999999818
20
-64.000000000023434
10
365.99999999999767
20
-57.000000000004043
42
-0.41421356237282447
10
366.9999999999967
20
-56.000000000003993
10
367.49999999999574
20
-56.00000000000378
42
-0.41421356237331353
10
368.49999999999682
20
-57.000000000003546
10
368.49999999999739
20
-59.381966011271246
42
-0.21342176528280493
10
368.16666666666595
20
-60.127322003769805
42
0.68850025807005433
10
368.50000000000114
20
-61.000000000015326
10
371.50000000000205
20
-61.000000000002252
42
0.68850025806796855
10
371.83333333333366
20
-60.127322003747643
42
-0.21342176528382409
10
371.49999999999898
20
-59.381966011246625
10
371.49999999999869
20
-56.999999999999105
42
-0.41421356237285567
10
372.49999999999778
20
-55.999999999998984
10
372.99999999999676
20
-55.999999999998487
42
-0.41421356237334478
10
373.99999999999773
20
-56.99999999999843
10
373.99999999999818
20
-64.000000000023434
42
-0.41421356237313667
10
372.99999999999812
20
-65.000000000023519
10
372.00000000000188
20
-65.000000000023519
42
0.41421356237313667
10
371.50000000000193
20
-65.500000000023562
0
LWPOLYLINE
5
102
100
AcDbEntity
8
0
100
AcDbPolyline
90
26
70
1
43
0.0
10
371.69230810305396
20
72.832376120186098
42
0.23096062868278733
10
371.50000048542717
20
72.438262722474207
10
371.50000000000369
20
65.500000000023988
42
0.41421356237309503
10
372.00000000000364
20
65.000000000024016
10
373.00000000000432
20
65.000000000023988
42
-0.4142135623730534
10
374.00000000000426
20
64.000000000024045
10
374.00000000000477
20
57.000000000004647
42
-0.41421356237284529
10
373.00000000000568
20
56.000000000004597
10
372.50000000000671
20
56.000000000004384
42
-0.41421356237331353
10
371.50000000000557
20
57.00000000000415
10
371.500000000005
20
59.381966011271849
42
-0.21342176528279877
10
371.8333333333365
20
60.127322003770374
42
0.68850025807003268
10
371.50000000000119
20
61.00000000001593
10
368.50000000000034
20
61.000000000002856
42
0.68850025806796855
10
368.16666666666879
20
60.127322003748247
42
-0.21342176528382409
10
368.50000000000341
20
59.381966011247229
10
368.50000000000364
20
56.999999999999709
42
-0.41421356237283491
10
367.5000000000046
20
55.999999999999588
10
367.00000000000563
20
55.999999999999091
42
-0.41421356237334478
10
366.00000000000472
20
56.999999999999034
10
366.00000000000421
20
64.000000000024045
42
-0.41421356237313667
10
367.00000000000432
20
65.00000000002413
10
368.00000000000057
20
65.00000000002413
42
0.41421356237313667
10
368.50000000000051
20
65.500000000024158
10
368.50000000000011
20
72.438262308511099
42
0.23096069700628208
10
368.30769230769243
20
72.832375799509407
42
-2.9058683983524021
0
LWPOLYLINE
5
103
100
AcDbEntity
8
0
100
AcDbPolyline
90
40
70
1
43
0.0
10
346.20000000000073
20
-34.588094023941771
10
346.2000000000009
20
-15.91190597605646
42
-0.10588754255383426
10
346.46315789473766
20
-14.683209393958618
42
-0.068135655305554627
10
350.1693494337236
20
-8.7459005662766032
42
0.3570343066491547
10
350.04346960912494
20
-7.4855006308018091
10
348.90398448916176
20
-6.3460155108385408
42
-0.99999999999999989
10
351.09601551083995
20
-4.1539844891602229
10
352.23550063080324
20
-5.2934696091234201
42
0.35703430664913532
10
353.49590056627858
20
-5.4193494337228536
42
-0.068135655305558318
10
359.43320939396023
20
-1.7131578947362471
42
-0.10588754255383651
10
360.66190597605811
20
-1.4499999999993918
10
379.33809402394473
20
-1.4499999999997146
42
-0.10588754255383079
10
380.56679060604182
20
-1.713157894738226
42
-0.068135655305562995
10
386.5040994337237
20
-5.4193494337221182
42
0.35703430664917418
10
387.76449936919857
20
-5.2934696091234201
10
388.90398450549361
20
-4.1539844728283546
42
-0.9999999925494194
10
391.09601551084012
20
-6.3460155108385763
10
389.95653039087688
20
-7.4855006308017735
42
0.35703430664916563
10
389.83065056627703
20
-8.7459005662777063
42
-0.068135655305576498
10
393.53684210526399
20
-14.683209393958395
42
-0.1058875425538373
10
393.80000000000081
20
-15.911905976056246
10
393.80000000000081
20
-34.588094023942446
42
-0.10588754255383449
10
393.53684210526416
20
-35.816790606040342
42
-0.068135655305587753
10
389.83065056627822
20
-41.754099433722196
42
0.35703430664916869
10
389.95653039087699
20
-43.014499369197097
10
391.09601551084012
20
-44.153984489160294
42
-0.99999999999999989
10
388.90398448916176
20
-46.346015510838612
10
387.76449936919857
20
-45.206530390875415
42
0.35703430664915603
10
386.50409943372415
20
-45.080650566277271
42
-0.068135655305584297
10
380.56679060604199
20
-48.786842105262409
42
-0.10588754255383055
10
379.33809402394417
20
-49.049999999999265
10
360.66190597605782
20
-49.049999999999379
42
-0.10588754255383055
10
359.43320939395926
20
-48.786842105264306
42
-0.068135655305569573
10
353.49590056627812
20
-45.080650566276859
42
0.35703430664920749
10
352.23550063080313
20
-45.20653039087545
10
351.09601551083995
20
-46.346015510838576
42
-0.99999999999999989
10
348.90398448916176
20
-44.153984489160258
10
350.04346960912483
20
-43.014499369197061
42
0.3570343066491603
10
350.16934943372257
20
-41.754099433723077
42
-0.068135655305570586
10
346.46315789473761
20
-35.816790606039518
42
-0.10588754255382662
0
LWPOLYLINE
5
104
100
AcDbEntity
8
0
100
AcDbPolyline
90
40
70
1
43
0.0
10
346.20000000000073
20
15.91190597605749
10
346.20000000000095
20
34.588094023943654
42
-0.10588754255382091
10
346.46315789473772
20
35.81679060604133
42
-0.068135655305572473
10
350.16934943372354
20
41.754099433723368
42
0.35703430664917118
10
350.04346960912483
20
43.01449936919834
10
348.90398447282985
20
44.153984505493405
42
-0.9999999925494194
10
351.09601551083995
20
46.34601551083982
10
352.23550063080324
20
45.206530390876623
42
0.35703430664917668
10
353.49590056627812
20
45.08065056627796
42
-0.068135655305568796
10
359.43320939395971
20
48.786842105263759
42
-0.10588754255384381
10
360.66190597605771
20
49.050000000000615
10
379.33809402394479
20
49.05000000000026
42
-0.10588754255383796
10
380.56679060604267
20
48.786842105263318
42
-0.068135655305563106
10
386.5040994337237
20
45.080650566277747
42
0.35703430664914332
10
387.76449936919846
20
45.206530390876445
10
388.90398450111769
20
46.346015522795611
42
-0.99999998709521587
10
391.09601552717203
20
44.153984505493398
10
389.95653039087688
20
43.014499369198305
42
0.3570343066491739
10
389.83065056627817
20
41.75409943372334
42
-0.068135655305571585
10
393.53684210526399
20
35.816790606041387
42
-0.10588754255382629
10
393.80000000000081
20
34.588094023943654
10
393.80000000000081
20
15.911905976057634
42
-0.1058875425538346
10
393.53684210526404
20
14.683209393959791
42
-0.068135655305572473
10
389.83065056627794
20
8.7459005662777756
42
0.3570343066490933
10
389.95653039087671
20
7.485500630803088
10
391.09601551083995
20
6.3460155108397132
42
-0.99999999999999989
10
388.90398448916176
20
4.1539844891613953
10
387.76449936919852
20
5.2934696091246281
42
0.35703430664914187
10
386.50409943372375
20
5.4193494337233243
42
-0.068135655305569351
10
380.56679060604182
20
1.7131578947374999
42
-0.10588754255382517
10
379.33809402394411
20
1.4500000000006708
10
360.66190597605782
20
1.4500000000005864
42
-0.10588754255382517
10
359.43320939396011
20
1.713157894737487
42
-0.068135655305569795
10
353.49590056627818
20
5.4193494337232551
42
0.35703430664920605
10
352.23550063080313
20
5.2934696091246281
10
351.09601552717186
20
4.1539845054932991
42
-1.0000000074505806
10
348.90398448916176
20
6.3460155108397132
10
350.04346960912494
20
7.4855006308028749
42
0.35703430664920471
10
350.16934943372354
20
8.7459005662778075
42
-0.068135655305569795
10
346.46315789473761
20
14.683209393959631
42
-0.10588754255383505
0
ENDSEC
0
SECTION
2
OBJECTS
0
DICTIONARY
5
C
100
AcDbDictionary
3
ACAD_GROUP
350
D
3
ACAD_MLINESTYLE
350
17
0
DICTIONARY
5
D
100
AcDbDictionary
0
DICTIONARY
5
1A
330
C
100
AcDbDictionary
0
DICTIONARY
5
17
100
AcDbDictionary
0
ENDSEC
0
EOF
